<svg xmlns="http://www.w3.org/2000/svg" viewBox="0 0 32 32" fill="none">
  <rect width="32" height="32" rx="7" fill="#1a2f24" />
  <path
    fill="#e8e4dc"
    d="M8.5 14c0-1 .8-1.8 1.8-1.8h7.4c1 0 1.8.8 1.8 1.8v5.2a4.8 4.8 0 0 1-4.8 4.8h-1.6a4.8 4.8 0 0 1-4.8-4.8V14Z"
  />
  <path
    stroke="#c9a227"
    stroke-linecap="round"
    stroke-width="1.15"
    d="M20.5 15.5h2a2.5 2.5 0 0 1 0 5h-2"
  />
  <path
    stroke="#c9a227"
    stroke-linecap="round"
    stroke-width="1"
    opacity="0.9"
    d="M12 10.5c.4-1.2 1.6-1.2 2 0M15 9c.5-1.3 1.9-1.3 2.5 0M18.5 10.5c.4-1.2 1.6-1.2 2 0"
  />
</svg>
